<mxfile host="Electron" agent="Mozilla/5.0 (Windows NT 10.0; Win64; x64) AppleWebKit/537.36 (KHTML, like Gecko) draw.io/26.1.1 Chrome/132.0.6834.210 Electron/34.3.3 Safari/537.36" version="26.1.1">
  <diagram id="prtHgNgQTEPvFCAcTncT" name="Page-1">
    <mxGraphModel dx="3385" dy="2160" grid="0" gridSize="10" guides="1" tooltips="1" connect="1" arrows="1" fold="1" page="0" pageScale="1" pageWidth="827" pageHeight="1169" background="light-dark(#333333, #000000)" math="0" shadow="0">
      <root>
        <mxCell id="0" />
        <mxCell id="1" parent="0" />
        <mxCell id="JhoKYniSx3QzVYMo0Xfw-73" style="edgeStyle=orthogonalEdgeStyle;rounded=0;orthogonalLoop=1;jettySize=auto;html=1;entryX=0.5;entryY=0;entryDx=0;entryDy=0;fillColor=#0050ef;strokeColor=#001DBC;" parent="1" source="dNxyNK7c78bLwvsdeMH5-11" target="JhoKYniSx3QzVYMo0Xfw-47" edge="1">
          <mxGeometry relative="1" as="geometry" />
        </mxCell>
        <mxCell id="YXR1pxdyc6zQwKIzhy1a-53" style="edgeStyle=none;curved=0;rounded=0;orthogonalLoop=1;jettySize=auto;html=1;entryX=0.5;entryY=0;entryDx=0;entryDy=0;fontSize=12;startSize=8;endSize=8;fillColor=#0050ef;strokeColor=#001DBC;" edge="1" parent="1" target="YXR1pxdyc6zQwKIzhy1a-2">
          <mxGeometry relative="1" as="geometry">
            <mxPoint x="832" y="380.0031775700935" as="sourcePoint" />
            <mxPoint x="550" y="487.62" as="targetPoint" />
            <Array as="points">
              <mxPoint x="832" y="430" />
              <mxPoint x="200" y="430" />
            </Array>
          </mxGeometry>
        </mxCell>
        <mxCell id="dNxyNK7c78bLwvsdeMH5-11" value="Start Node" style="swimlane;html=1;startSize=30;horizontal=1;containerType=tree;glass=0;fillColor=#0050ef;strokeColor=#001DBC;fontColor=#ffffff;" parent="1" vertex="1">
          <mxGeometry x="482" y="90" width="720" height="290" as="geometry">
            <mxRectangle x="40" y="80" width="90" height="30" as="alternateBounds" />
          </mxGeometry>
        </mxCell>
        <mxCell id="JhoKYniSx3QzVYMo0Xfw-124" style="edgeStyle=orthogonalEdgeStyle;rounded=0;orthogonalLoop=1;jettySize=auto;html=1;" parent="dNxyNK7c78bLwvsdeMH5-11" source="JhoKYniSx3QzVYMo0Xfw-8" target="JhoKYniSx3QzVYMo0Xfw-119" edge="1">
          <mxGeometry relative="1" as="geometry" />
        </mxCell>
        <mxCell id="JhoKYniSx3QzVYMo0Xfw-8" value="Fetch Domains from frontend" style="ellipse;whiteSpace=wrap;html=1;fillColor=#1ba1e2;strokeColor=#006EAF;fontColor=#ffffff;" parent="dNxyNK7c78bLwvsdeMH5-11" vertex="1">
          <mxGeometry x="38" y="50" width="120" height="80" as="geometry" />
        </mxCell>
        <mxCell id="JhoKYniSx3QzVYMo0Xfw-115" value="save clear text in txt file" style="shape=parallelogram;perimeter=parallelogramPerimeter;fixedSize=1;fillColor=#1ba1e2;strokeColor=#006EAF;fontColor=default;fontStyle=0;align=center;horizontal=1;fontFamily=Helvetica;whiteSpace=wrap;" parent="dNxyNK7c78bLwvsdeMH5-11" vertex="1">
          <mxGeometry x="528" y="190" width="170" height="60" as="geometry" />
        </mxCell>
        <mxCell id="JhoKYniSx3QzVYMo0Xfw-129" style="edgeStyle=orthogonalEdgeStyle;rounded=0;orthogonalLoop=1;jettySize=auto;html=1;" parent="dNxyNK7c78bLwvsdeMH5-11" source="JhoKYniSx3QzVYMo0Xfw-119" target="JhoKYniSx3QzVYMo0Xfw-115" edge="1">
          <mxGeometry relative="1" as="geometry" />
        </mxCell>
        <mxCell id="JhoKYniSx3QzVYMo0Xfw-119" value="Convert from JSON format to TXT format (clear text)" style="shape=parallelogram;perimeter=parallelogramPerimeter;whiteSpace=wrap;html=1;fixedSize=1;fillColor=#60a917;strokeColor=#2D7600;fontColor=#ffffff;" parent="dNxyNK7c78bLwvsdeMH5-11" vertex="1">
          <mxGeometry x="262.5" y="130" width="217.5" height="60" as="geometry" />
        </mxCell>
        <mxCell id="YXR1pxdyc6zQwKIzhy1a-114" style="edgeStyle=none;curved=1;rounded=0;orthogonalLoop=1;jettySize=auto;html=1;entryX=0.5;entryY=0;entryDx=0;entryDy=0;fontSize=12;startSize=8;endSize=8;fillColor=#0050ef;strokeColor=#001DBC;" edge="1" parent="1" source="JhoKYniSx3QzVYMo0Xfw-47" target="YXR1pxdyc6zQwKIzhy1a-86">
          <mxGeometry relative="1" as="geometry" />
        </mxCell>
        <mxCell id="JhoKYniSx3QzVYMo0Xfw-47" value="Subdomain ENumeration" style="swimlane;html=1;startSize=30;horizontal=1;containerType=tree;glass=0;fillColor=#008a00;strokeColor=#005700;fontColor=#ffffff;" parent="1" vertex="1">
          <mxGeometry x="920" y="480" width="1120" height="720" as="geometry">
            <mxRectangle x="40" y="80" width="90" height="30" as="alternateBounds" />
          </mxGeometry>
        </mxCell>
        <mxCell id="JhoKYniSx3QzVYMo0Xfw-106" style="edgeStyle=orthogonalEdgeStyle;rounded=0;orthogonalLoop=1;jettySize=auto;html=1;" parent="JhoKYniSx3QzVYMo0Xfw-47" source="JhoKYniSx3QzVYMo0Xfw-82" target="JhoKYniSx3QzVYMo0Xfw-100" edge="1">
          <mxGeometry relative="1" as="geometry" />
        </mxCell>
        <mxCell id="JhoKYniSx3QzVYMo0Xfw-107" style="edgeStyle=orthogonalEdgeStyle;rounded=0;orthogonalLoop=1;jettySize=auto;html=1;" parent="JhoKYniSx3QzVYMo0Xfw-47" source="JhoKYniSx3QzVYMo0Xfw-82" target="JhoKYniSx3QzVYMo0Xfw-99" edge="1">
          <mxGeometry relative="1" as="geometry" />
        </mxCell>
        <mxCell id="JhoKYniSx3QzVYMo0Xfw-108" style="edgeStyle=orthogonalEdgeStyle;rounded=0;orthogonalLoop=1;jettySize=auto;html=1;entryX=0.5;entryY=0;entryDx=0;entryDy=0;" parent="JhoKYniSx3QzVYMo0Xfw-47" source="JhoKYniSx3QzVYMo0Xfw-82" target="JhoKYniSx3QzVYMo0Xfw-102" edge="1">
          <mxGeometry relative="1" as="geometry" />
        </mxCell>
        <mxCell id="JhoKYniSx3QzVYMo0Xfw-109" style="edgeStyle=orthogonalEdgeStyle;rounded=0;orthogonalLoop=1;jettySize=auto;html=1;entryX=0.5;entryY=0;entryDx=0;entryDy=0;" parent="JhoKYniSx3QzVYMo0Xfw-47" source="JhoKYniSx3QzVYMo0Xfw-82" target="JhoKYniSx3QzVYMo0Xfw-101" edge="1">
          <mxGeometry relative="1" as="geometry" />
        </mxCell>
        <mxCell id="JhoKYniSx3QzVYMo0Xfw-111" style="edgeStyle=orthogonalEdgeStyle;rounded=0;orthogonalLoop=1;jettySize=auto;html=1;entryX=0.5;entryY=0;entryDx=0;entryDy=0;" parent="JhoKYniSx3QzVYMo0Xfw-47" source="JhoKYniSx3QzVYMo0Xfw-82" target="JhoKYniSx3QzVYMo0Xfw-105" edge="1">
          <mxGeometry relative="1" as="geometry" />
        </mxCell>
        <mxCell id="JhoKYniSx3QzVYMo0Xfw-112" style="edgeStyle=orthogonalEdgeStyle;rounded=0;orthogonalLoop=1;jettySize=auto;html=1;entryX=0.5;entryY=0;entryDx=0;entryDy=0;" parent="JhoKYniSx3QzVYMo0Xfw-47" source="JhoKYniSx3QzVYMo0Xfw-82" target="JhoKYniSx3QzVYMo0Xfw-104" edge="1">
          <mxGeometry relative="1" as="geometry" />
        </mxCell>
        <mxCell id="JhoKYniSx3QzVYMo0Xfw-82" value="domains" style="shape=parallelogram;perimeter=parallelogramPerimeter;whiteSpace=wrap;html=1;fixedSize=1;fillColor=#1ba1e2;strokeColor=#006EAF;fontColor=#ffffff;" parent="JhoKYniSx3QzVYMo0Xfw-47" vertex="1">
          <mxGeometry x="500" y="80" width="120" height="60" as="geometry" />
        </mxCell>
        <mxCell id="JhoKYniSx3QzVYMo0Xfw-146" style="edgeStyle=orthogonalEdgeStyle;rounded=0;orthogonalLoop=1;jettySize=auto;html=1;" parent="JhoKYniSx3QzVYMo0Xfw-47" source="JhoKYniSx3QzVYMo0Xfw-98" edge="1">
          <mxGeometry relative="1" as="geometry">
            <mxPoint x="508" y="360" as="targetPoint" />
            <Array as="points">
              <mxPoint x="400" y="360" />
            </Array>
          </mxGeometry>
        </mxCell>
        <mxCell id="JhoKYniSx3QzVYMo0Xfw-98" value="assetfinder" style="rounded=0;whiteSpace=wrap;html=1;fillColor=#60a917;strokeColor=#2D7600;fontColor=#ffffff;" parent="JhoKYniSx3QzVYMo0Xfw-47" vertex="1">
          <mxGeometry x="340" y="190" width="120" height="60" as="geometry" />
        </mxCell>
        <mxCell id="JhoKYniSx3QzVYMo0Xfw-137" style="edgeStyle=orthogonalEdgeStyle;rounded=0;orthogonalLoop=1;jettySize=auto;html=1;entryX=1;entryY=0.75;entryDx=0;entryDy=0;" parent="JhoKYniSx3QzVYMo0Xfw-47" source="JhoKYniSx3QzVYMo0Xfw-102" target="JhoKYniSx3QzVYMo0Xfw-132" edge="1">
          <mxGeometry relative="1" as="geometry">
            <mxPoint x="720" y="360" as="targetPoint" />
            <Array as="points">
              <mxPoint x="720" y="362" />
            </Array>
          </mxGeometry>
        </mxCell>
        <mxCell id="JhoKYniSx3QzVYMo0Xfw-102" value="knockpy" style="rounded=0;whiteSpace=wrap;html=1;fillColor=#60a917;strokeColor=#2D7600;fontColor=#ffffff;" parent="JhoKYniSx3QzVYMo0Xfw-47" vertex="1">
          <mxGeometry x="660" y="190" width="120" height="60" as="geometry" />
        </mxCell>
        <mxCell id="JhoKYniSx3QzVYMo0Xfw-141" style="edgeStyle=orthogonalEdgeStyle;rounded=0;orthogonalLoop=1;jettySize=auto;html=1;entryX=0.5;entryY=0;entryDx=0;entryDy=0;" parent="JhoKYniSx3QzVYMo0Xfw-47" source="JhoKYniSx3QzVYMo0Xfw-101" target="JhoKYniSx3QzVYMo0Xfw-132" edge="1">
          <mxGeometry relative="1" as="geometry" />
        </mxCell>
        <mxCell id="JhoKYniSx3QzVYMo0Xfw-101" value="findomain" style="rounded=0;whiteSpace=wrap;html=1;fillColor=#60a917;strokeColor=#2D7600;fontColor=#ffffff;" parent="JhoKYniSx3QzVYMo0Xfw-47" vertex="1">
          <mxGeometry x="500" y="190" width="120" height="60" as="geometry" />
        </mxCell>
        <mxCell id="JhoKYniSx3QzVYMo0Xfw-133" style="edgeStyle=orthogonalEdgeStyle;rounded=0;orthogonalLoop=1;jettySize=auto;html=1;entryX=1;entryY=0.75;entryDx=0;entryDy=0;" parent="JhoKYniSx3QzVYMo0Xfw-47" source="JhoKYniSx3QzVYMo0Xfw-100" target="JhoKYniSx3QzVYMo0Xfw-132" edge="1">
          <mxGeometry relative="1" as="geometry">
            <mxPoint x="968" y="360" as="targetPoint" />
            <Array as="points">
              <mxPoint x="1040" y="362" />
            </Array>
          </mxGeometry>
        </mxCell>
        <mxCell id="JhoKYniSx3QzVYMo0Xfw-100" value="&lt;span class=&quot;notion-enable-hover&quot; data-token-index=&quot;0&quot; style=&quot;font-weight:600&quot;&gt;github-subdomains.py&lt;/span&gt;" style="rounded=0;whiteSpace=wrap;html=1;fillColor=#60a917;strokeColor=#2D7600;fontColor=#ffffff;" parent="JhoKYniSx3QzVYMo0Xfw-47" vertex="1">
          <mxGeometry x="980" y="190" width="120" height="60" as="geometry" />
        </mxCell>
        <mxCell id="JhoKYniSx3QzVYMo0Xfw-134" style="edgeStyle=orthogonalEdgeStyle;rounded=0;orthogonalLoop=1;jettySize=auto;html=1;entryX=1;entryY=0.75;entryDx=0;entryDy=0;" parent="JhoKYniSx3QzVYMo0Xfw-47" source="JhoKYniSx3QzVYMo0Xfw-99" target="JhoKYniSx3QzVYMo0Xfw-132" edge="1">
          <mxGeometry relative="1" as="geometry">
            <mxPoint x="878" y="370" as="targetPoint" />
            <Array as="points">
              <mxPoint x="880" y="360" />
              <mxPoint x="879" y="360" />
              <mxPoint x="879" y="362" />
            </Array>
          </mxGeometry>
        </mxCell>
        <mxCell id="JhoKYniSx3QzVYMo0Xfw-99" value="&lt;br&gt;&lt;span class=&quot;notion-enable-hover&quot; data-token-index=&quot;0&quot; style=&quot;font-weight:600&quot;&gt;chaos &lt;/span&gt;&lt;div&gt;&lt;br/&gt;&lt;/div&gt;" style="rounded=0;whiteSpace=wrap;html=1;fillColor=#60a917;strokeColor=#2D7600;fontColor=#ffffff;" parent="JhoKYniSx3QzVYMo0Xfw-47" vertex="1">
          <mxGeometry x="820" y="190" width="120" height="60" as="geometry" />
        </mxCell>
        <mxCell id="JhoKYniSx3QzVYMo0Xfw-145" style="edgeStyle=orthogonalEdgeStyle;rounded=0;orthogonalLoop=1;jettySize=auto;html=1;" parent="JhoKYniSx3QzVYMo0Xfw-47" source="JhoKYniSx3QzVYMo0Xfw-105" edge="1">
          <mxGeometry relative="1" as="geometry">
            <mxPoint x="508" y="360" as="targetPoint" />
            <Array as="points">
              <mxPoint x="240" y="305" />
              <mxPoint x="241" y="305" />
              <mxPoint x="241" y="360" />
            </Array>
          </mxGeometry>
        </mxCell>
        <mxCell id="JhoKYniSx3QzVYMo0Xfw-105" value="sublist3r" style="rounded=0;whiteSpace=wrap;html=1;fillColor=#60a917;strokeColor=#2D7600;fontColor=#ffffff;" parent="JhoKYniSx3QzVYMo0Xfw-47" vertex="1">
          <mxGeometry x="180" y="190" width="120" height="60" as="geometry" />
        </mxCell>
        <mxCell id="JhoKYniSx3QzVYMo0Xfw-144" style="edgeStyle=orthogonalEdgeStyle;rounded=0;orthogonalLoop=1;jettySize=auto;html=1;entryX=0.058;entryY=0.633;entryDx=0;entryDy=0;entryPerimeter=0;" parent="JhoKYniSx3QzVYMo0Xfw-47" source="JhoKYniSx3QzVYMo0Xfw-104" target="JhoKYniSx3QzVYMo0Xfw-132" edge="1">
          <mxGeometry relative="1" as="geometry">
            <mxPoint x="78" y="360" as="targetPoint" />
            <Array as="points">
              <mxPoint x="80" y="358" />
            </Array>
          </mxGeometry>
        </mxCell>
        <mxCell id="JhoKYniSx3QzVYMo0Xfw-104" value="subfinder" style="rounded=0;whiteSpace=wrap;html=1;fillColor=#60a917;strokeColor=#2D7600;fontColor=#ffffff;" parent="JhoKYniSx3QzVYMo0Xfw-47" vertex="1">
          <mxGeometry x="20" y="190" width="120" height="60" as="geometry" />
        </mxCell>
        <mxCell id="JhoKYniSx3QzVYMo0Xfw-110" style="edgeStyle=orthogonalEdgeStyle;rounded=0;orthogonalLoop=1;jettySize=auto;html=1;entryX=0.45;entryY=-0.033;entryDx=0;entryDy=0;entryPerimeter=0;" parent="JhoKYniSx3QzVYMo0Xfw-47" source="JhoKYniSx3QzVYMo0Xfw-82" target="JhoKYniSx3QzVYMo0Xfw-98" edge="1">
          <mxGeometry relative="1" as="geometry" />
        </mxCell>
        <mxCell id="JhoKYniSx3QzVYMo0Xfw-148" style="edgeStyle=orthogonalEdgeStyle;rounded=0;orthogonalLoop=1;jettySize=auto;html=1;" parent="JhoKYniSx3QzVYMo0Xfw-47" source="JhoKYniSx3QzVYMo0Xfw-132" target="JhoKYniSx3QzVYMo0Xfw-147" edge="1">
          <mxGeometry relative="1" as="geometry" />
        </mxCell>
        <mxCell id="JhoKYniSx3QzVYMo0Xfw-132" value="subdomains" style="shape=parallelogram;perimeter=parallelogramPerimeter;whiteSpace=wrap;html=1;fixedSize=1;fillColor=#1ba1e2;strokeColor=#006EAF;fontColor=#ffffff;" parent="JhoKYniSx3QzVYMo0Xfw-47" vertex="1">
          <mxGeometry x="500" y="320" width="120" height="60" as="geometry" />
        </mxCell>
        <mxCell id="JhoKYniSx3QzVYMo0Xfw-152" style="edgeStyle=orthogonalEdgeStyle;rounded=0;orthogonalLoop=1;jettySize=auto;html=1;entryX=0.5;entryY=0;entryDx=0;entryDy=0;" parent="JhoKYniSx3QzVYMo0Xfw-47" source="JhoKYniSx3QzVYMo0Xfw-147" target="JhoKYniSx3QzVYMo0Xfw-151" edge="1">
          <mxGeometry relative="1" as="geometry" />
        </mxCell>
        <mxCell id="JhoKYniSx3QzVYMo0Xfw-147" value="filter subdomains" style="rounded=0;whiteSpace=wrap;html=1;fillColor=#60a917;strokeColor=#2D7600;fontColor=#ffffff;" parent="JhoKYniSx3QzVYMo0Xfw-47" vertex="1">
          <mxGeometry x="500" y="440" width="120" height="60" as="geometry" />
        </mxCell>
        <mxCell id="JhoKYniSx3QzVYMo0Xfw-151" value="filtered subdomains" style="shape=parallelogram;perimeter=parallelogramPerimeter;whiteSpace=wrap;html=1;fixedSize=1;fillColor=#1ba1e2;strokeColor=#006EAF;fontColor=#ffffff;" parent="JhoKYniSx3QzVYMo0Xfw-47" vertex="1">
          <mxGeometry x="475" y="550" width="170" height="60" as="geometry" />
        </mxCell>
        <mxCell id="JhoKYniSx3QzVYMo0Xfw-68" style="edgeStyle=orthogonalEdgeStyle;rounded=0;orthogonalLoop=1;jettySize=auto;html=1;" parent="1" edge="1">
          <mxGeometry relative="1" as="geometry">
            <mxPoint x="824" y="960" as="targetPoint" />
          </mxGeometry>
        </mxCell>
        <mxCell id="JhoKYniSx3QzVYMo0Xfw-70" style="edgeStyle=orthogonalEdgeStyle;rounded=0;orthogonalLoop=1;jettySize=auto;html=1;entryX=0.5;entryY=0;entryDx=0;entryDy=0;" parent="1" edge="1">
          <mxGeometry relative="1" as="geometry">
            <mxPoint x="404" y="960" as="targetPoint" />
          </mxGeometry>
        </mxCell>
        <mxCell id="JhoKYniSx3QzVYMo0Xfw-71" style="edgeStyle=orthogonalEdgeStyle;rounded=0;orthogonalLoop=1;jettySize=auto;html=1;entryX=0.5;entryY=0;entryDx=0;entryDy=0;" parent="1" edge="1">
          <mxGeometry relative="1" as="geometry">
            <mxPoint x="324" y="1040" as="targetPoint" />
          </mxGeometry>
        </mxCell>
        <mxCell id="YXR1pxdyc6zQwKIzhy1a-115" style="edgeStyle=none;curved=1;rounded=0;orthogonalLoop=1;jettySize=auto;html=1;entryX=0.5;entryY=0;entryDx=0;entryDy=0;fontSize=12;startSize=8;endSize=8;fillColor=#0050ef;strokeColor=#001DBC;" edge="1" parent="1" source="YXR1pxdyc6zQwKIzhy1a-2" target="YXR1pxdyc6zQwKIzhy1a-86">
          <mxGeometry relative="1" as="geometry" />
        </mxCell>
        <mxCell id="YXR1pxdyc6zQwKIzhy1a-2" value="Subdomain Enumeration (Websites)" style="swimlane;html=1;startSize=30;horizontal=1;containerType=tree;glass=0;fillColor=#008a00;strokeColor=#005700;fontColor=#ffffff;" vertex="1" parent="1">
          <mxGeometry x="-360" y="480" width="1120" height="720" as="geometry">
            <mxRectangle x="40" y="80" width="90" height="30" as="alternateBounds" />
          </mxGeometry>
        </mxCell>
        <mxCell id="YXR1pxdyc6zQwKIzhy1a-42" style="edgeStyle=none;curved=1;rounded=0;orthogonalLoop=1;jettySize=auto;html=1;entryX=0.5;entryY=0;entryDx=0;entryDy=0;fontSize=12;startSize=8;endSize=8;" edge="1" parent="YXR1pxdyc6zQwKIzhy1a-2" source="YXR1pxdyc6zQwKIzhy1a-9" target="YXR1pxdyc6zQwKIzhy1a-41">
          <mxGeometry relative="1" as="geometry">
            <Array as="points">
              <mxPoint x="240" y="120" />
            </Array>
          </mxGeometry>
        </mxCell>
        <mxCell id="YXR1pxdyc6zQwKIzhy1a-43" style="edgeStyle=none;curved=1;rounded=0;orthogonalLoop=1;jettySize=auto;html=1;entryX=0.5;entryY=0;entryDx=0;entryDy=0;fontSize=12;startSize=8;endSize=8;" edge="1" parent="YXR1pxdyc6zQwKIzhy1a-2" source="YXR1pxdyc6zQwKIzhy1a-9" target="YXR1pxdyc6zQwKIzhy1a-32">
          <mxGeometry relative="1" as="geometry">
            <Array as="points">
              <mxPoint x="340" y="160" />
            </Array>
          </mxGeometry>
        </mxCell>
        <mxCell id="YXR1pxdyc6zQwKIzhy1a-44" style="edgeStyle=none;curved=1;rounded=0;orthogonalLoop=1;jettySize=auto;html=1;entryX=0.5;entryY=0;entryDx=0;entryDy=0;fontSize=12;startSize=8;endSize=8;" edge="1" parent="YXR1pxdyc6zQwKIzhy1a-2" source="YXR1pxdyc6zQwKIzhy1a-9" target="YXR1pxdyc6zQwKIzhy1a-33">
          <mxGeometry relative="1" as="geometry">
            <Array as="points">
              <mxPoint x="750" y="160" />
            </Array>
          </mxGeometry>
        </mxCell>
        <mxCell id="YXR1pxdyc6zQwKIzhy1a-45" style="edgeStyle=none;curved=1;rounded=0;orthogonalLoop=1;jettySize=auto;html=1;entryX=0.5;entryY=0;entryDx=0;entryDy=0;fontSize=12;startSize=8;endSize=8;" edge="1" parent="YXR1pxdyc6zQwKIzhy1a-2" source="YXR1pxdyc6zQwKIzhy1a-9" target="YXR1pxdyc6zQwKIzhy1a-31">
          <mxGeometry relative="1" as="geometry">
            <Array as="points">
              <mxPoint x="900" y="140" />
            </Array>
          </mxGeometry>
        </mxCell>
        <mxCell id="YXR1pxdyc6zQwKIzhy1a-9" value="domains" style="shape=parallelogram;perimeter=parallelogramPerimeter;whiteSpace=wrap;html=1;fixedSize=1;fillColor=#1ba1e2;strokeColor=#006EAF;fontColor=#ffffff;" vertex="1" parent="YXR1pxdyc6zQwKIzhy1a-2">
          <mxGeometry x="500" y="80" width="120" height="60" as="geometry" />
        </mxCell>
        <mxCell id="YXR1pxdyc6zQwKIzhy1a-60" style="edgeStyle=none;curved=1;rounded=0;orthogonalLoop=1;jettySize=auto;html=1;entryX=1;entryY=0.5;entryDx=0;entryDy=0;fontSize=12;startSize=8;endSize=8;" edge="1" parent="YXR1pxdyc6zQwKIzhy1a-2" source="YXR1pxdyc6zQwKIzhy1a-31" target="YXR1pxdyc6zQwKIzhy1a-59">
          <mxGeometry relative="1" as="geometry">
            <Array as="points">
              <mxPoint x="800" y="410" />
            </Array>
          </mxGeometry>
        </mxCell>
        <UserObject label="&lt;a tabindex=&quot;0&quot; data-token-index=&quot;0&quot; rel=&quot;noopener noreferrer&quot; class=&quot;notion-link-token notion-focusable-token notion-enable-hover&quot; style=&quot;cursor: pointer; overflow-wrap: break-word; text-decoration: inherit;&quot; href=&quot;https://shrewdeye.app/search&quot;&gt;&lt;span class=&quot;link-annotation-unknown-block-id-1851944407&quot; style=&quot;border-bottom:0.05em solid;border-color:rgba(55,53,47,.4);opacity:0.7&quot;&gt;https://shrewdeye.app/search&lt;/span&gt;&lt;/a&gt;" link="&#xa;&lt;a tabindex=&quot;0&quot; data-token-index=&quot;0&quot; rel=&quot;noopener noreferrer&quot; class=&quot;notion-link-token notion-focusable-token notion-enable-hover&quot; style=&quot;cursor:pointer;color:inherit;word-wrap:break-word;text-decoration:inherit&quot; href=&quot;https://shrewdeye.app/search&quot;&gt;&lt;span class=&quot;link-annotation-unknown-block-id-1851944407&quot; style=&quot;border-bottom:0.05em solid;border-color:rgba(55,53,47,.4);opacity:0.7&quot;&gt;https://shrewdeye.app/search&lt;/span&gt;&lt;/a&gt;&#xa;&#xa;" id="YXR1pxdyc6zQwKIzhy1a-31">
          <mxCell style="rounded=0;whiteSpace=wrap;html=1;fillColor=#008a00;fontColor=#ffffff;strokeColor=#005700;" vertex="1" parent="YXR1pxdyc6zQwKIzhy1a-2">
            <mxGeometry x="890" y="240" width="190" height="60" as="geometry" />
          </mxCell>
        </UserObject>
        <mxCell id="YXR1pxdyc6zQwKIzhy1a-32" value="&lt;a tabindex=&quot;0&quot; data-token-index=&quot;0&quot; rel=&quot;noopener noreferrer&quot; class=&quot;notion-link-token notion-focusable-token notion-enable-hover&quot; style=&quot;cursor: pointer; overflow-wrap: break-word; text-decoration: inherit;&quot; href=&quot;http://securitytrails.com/&quot;&gt;&lt;span class=&quot;link-annotation-unknown-block-id-1473689181&quot; style=&quot;border-bottom:0.05em solid;border-color:rgba(55,53,47,.4);opacity:0.7&quot;&gt;Securitytrails.com&lt;/span&gt;&lt;/a&gt;" style="rounded=0;whiteSpace=wrap;html=1;fillColor=#008a00;fontColor=#ffffff;strokeColor=#005700;" vertex="1" parent="YXR1pxdyc6zQwKIzhy1a-2">
          <mxGeometry x="270" y="240" width="160" height="60" as="geometry" />
        </mxCell>
        <mxCell id="YXR1pxdyc6zQwKIzhy1a-61" style="edgeStyle=none;curved=1;rounded=0;orthogonalLoop=1;jettySize=auto;html=1;fontSize=12;startSize=8;endSize=8;entryX=0.75;entryY=0;entryDx=0;entryDy=0;" edge="1" parent="YXR1pxdyc6zQwKIzhy1a-2" source="YXR1pxdyc6zQwKIzhy1a-33" target="YXR1pxdyc6zQwKIzhy1a-59">
          <mxGeometry relative="1" as="geometry">
            <Array as="points">
              <mxPoint x="660" y="350" />
            </Array>
          </mxGeometry>
        </mxCell>
        <mxCell id="YXR1pxdyc6zQwKIzhy1a-33" value="&lt;a tabindex=&quot;0&quot; data-token-index=&quot;0&quot; rel=&quot;noopener noreferrer&quot; class=&quot;notion-link-token notion-focusable-token notion-enable-hover&quot; style=&quot;cursor: pointer; overflow-wrap: break-word; text-decoration: inherit;&quot; href=&quot;http://subdomainfinder.c99.nl/&quot;&gt;&lt;span class=&quot;link-annotation-unknown-block-id-130376816&quot; style=&quot;border-bottom:0.05em solid;border-color:rgba(55,53,47,.4);opacity:0.7&quot;&gt;Subdomainfinder.c99.nl&lt;/span&gt;&lt;/a&gt;" style="rounded=0;whiteSpace=wrap;html=1;fillColor=#008a00;fontColor=#ffffff;strokeColor=#005700;" vertex="1" parent="YXR1pxdyc6zQwKIzhy1a-2">
          <mxGeometry x="640" y="240" width="170" height="60" as="geometry" />
        </mxCell>
        <mxCell id="YXR1pxdyc6zQwKIzhy1a-65" style="edgeStyle=none;curved=1;rounded=0;orthogonalLoop=1;jettySize=auto;html=1;entryX=0;entryY=0.5;entryDx=0;entryDy=0;fontSize=12;startSize=8;endSize=8;" edge="1" parent="YXR1pxdyc6zQwKIzhy1a-2" source="YXR1pxdyc6zQwKIzhy1a-41" target="YXR1pxdyc6zQwKIzhy1a-59">
          <mxGeometry relative="1" as="geometry">
            <Array as="points">
              <mxPoint x="290" y="390" />
            </Array>
          </mxGeometry>
        </mxCell>
        <mxCell id="YXR1pxdyc6zQwKIzhy1a-41" value="crt.sh" style="rounded=0;whiteSpace=wrap;html=1;fillColor=#008a00;fontColor=#ffffff;strokeColor=#005700;" vertex="1" parent="YXR1pxdyc6zQwKIzhy1a-2">
          <mxGeometry x="40" y="240" width="120" height="60" as="geometry" />
        </mxCell>
        <mxCell id="YXR1pxdyc6zQwKIzhy1a-84" style="edgeStyle=none;curved=1;rounded=0;orthogonalLoop=1;jettySize=auto;html=1;fontSize=12;startSize=8;endSize=8;" edge="1" parent="YXR1pxdyc6zQwKIzhy1a-2" source="YXR1pxdyc6zQwKIzhy1a-59" target="YXR1pxdyc6zQwKIzhy1a-82">
          <mxGeometry relative="1" as="geometry" />
        </mxCell>
        <mxCell id="YXR1pxdyc6zQwKIzhy1a-59" value="subdomains" style="shape=parallelogram;perimeter=parallelogramPerimeter;whiteSpace=wrap;html=1;fixedSize=1;fillColor=#1ba1e2;strokeColor=#006EAF;fontColor=#ffffff;" vertex="1" parent="YXR1pxdyc6zQwKIzhy1a-2">
          <mxGeometry x="500" y="380" width="120" height="60" as="geometry" />
        </mxCell>
        <mxCell id="YXR1pxdyc6zQwKIzhy1a-64" style="edgeStyle=none;curved=1;rounded=0;orthogonalLoop=1;jettySize=auto;html=1;entryX=0.375;entryY=0.014;entryDx=0;entryDy=0;entryPerimeter=0;fontSize=12;startSize=8;endSize=8;" edge="1" parent="YXR1pxdyc6zQwKIzhy1a-2" source="YXR1pxdyc6zQwKIzhy1a-32" target="YXR1pxdyc6zQwKIzhy1a-59">
          <mxGeometry relative="1" as="geometry">
            <Array as="points">
              <mxPoint x="450" y="340" />
            </Array>
          </mxGeometry>
        </mxCell>
        <mxCell id="YXR1pxdyc6zQwKIzhy1a-85" style="edgeStyle=none;curved=1;rounded=0;orthogonalLoop=1;jettySize=auto;html=1;entryX=0.5;entryY=0;entryDx=0;entryDy=0;fontSize=12;startSize=8;endSize=8;" edge="1" parent="YXR1pxdyc6zQwKIzhy1a-2" source="YXR1pxdyc6zQwKIzhy1a-82" target="YXR1pxdyc6zQwKIzhy1a-83">
          <mxGeometry relative="1" as="geometry" />
        </mxCell>
        <mxCell id="YXR1pxdyc6zQwKIzhy1a-82" value="filter subdomains" style="rounded=0;whiteSpace=wrap;html=1;fillColor=#60a917;strokeColor=#2D7600;fontColor=#ffffff;" vertex="1" parent="YXR1pxdyc6zQwKIzhy1a-2">
          <mxGeometry x="500" y="480" width="120" height="60" as="geometry" />
        </mxCell>
        <mxCell id="YXR1pxdyc6zQwKIzhy1a-83" value="filtered subdomains" style="shape=parallelogram;perimeter=parallelogramPerimeter;whiteSpace=wrap;html=1;fixedSize=1;fillColor=#1ba1e2;strokeColor=#006EAF;fontColor=#ffffff;" vertex="1" parent="YXR1pxdyc6zQwKIzhy1a-2">
          <mxGeometry x="475" y="590" width="170" height="60" as="geometry" />
        </mxCell>
        <mxCell id="YXR1pxdyc6zQwKIzhy1a-86" value="Live Subdomains" style="swimlane;html=1;startSize=30;horizontal=1;containerType=tree;glass=0;fillColor=#008a00;strokeColor=#005700;fontColor=#ffffff;" vertex="1" parent="1">
          <mxGeometry x="480" y="1480" width="680" height="520" as="geometry">
            <mxRectangle x="40" y="80" width="90" height="30" as="alternateBounds" />
          </mxGeometry>
        </mxCell>
        <mxCell id="YXR1pxdyc6zQwKIzhy1a-119" style="edgeStyle=none;curved=1;rounded=0;orthogonalLoop=1;jettySize=auto;html=1;entryX=0.5;entryY=0;entryDx=0;entryDy=0;fontSize=12;startSize=8;endSize=8;" edge="1" parent="YXR1pxdyc6zQwKIzhy1a-86" source="YXR1pxdyc6zQwKIzhy1a-93" target="YXR1pxdyc6zQwKIzhy1a-116">
          <mxGeometry relative="1" as="geometry" />
        </mxCell>
        <mxCell id="YXR1pxdyc6zQwKIzhy1a-93" value="All Subdomains" style="shape=parallelogram;perimeter=parallelogramPerimeter;whiteSpace=wrap;html=1;fixedSize=1;fillColor=#1ba1e2;strokeColor=#006EAF;fontColor=#ffffff;" vertex="1" parent="YXR1pxdyc6zQwKIzhy1a-86">
          <mxGeometry x="290" y="90" width="120" height="60" as="geometry" />
        </mxCell>
        <mxCell id="YXR1pxdyc6zQwKIzhy1a-124" style="edgeStyle=none;curved=1;rounded=0;orthogonalLoop=1;jettySize=auto;html=1;entryX=0.5;entryY=0;entryDx=0;entryDy=0;fontSize=12;startSize=8;endSize=8;" edge="1" parent="YXR1pxdyc6zQwKIzhy1a-86" source="YXR1pxdyc6zQwKIzhy1a-116" target="YXR1pxdyc6zQwKIzhy1a-121">
          <mxGeometry relative="1" as="geometry" />
        </mxCell>
        <mxCell id="YXR1pxdyc6zQwKIzhy1a-125" style="edgeStyle=none;curved=1;rounded=0;orthogonalLoop=1;jettySize=auto;html=1;exitX=0;exitY=0.5;exitDx=0;exitDy=0;entryX=0.5;entryY=0;entryDx=0;entryDy=0;fontSize=12;startSize=8;endSize=8;" edge="1" parent="YXR1pxdyc6zQwKIzhy1a-86" source="YXR1pxdyc6zQwKIzhy1a-116" target="YXR1pxdyc6zQwKIzhy1a-122">
          <mxGeometry relative="1" as="geometry" />
        </mxCell>
        <mxCell id="YXR1pxdyc6zQwKIzhy1a-116" value="httpx" style="rounded=0;whiteSpace=wrap;html=1;fillColor=#60a917;fontColor=#ffffff;strokeColor=#2D7600;" vertex="1" parent="YXR1pxdyc6zQwKIzhy1a-86">
          <mxGeometry x="290" y="250" width="120" height="60" as="geometry" />
        </mxCell>
        <mxCell id="YXR1pxdyc6zQwKIzhy1a-120" value="interesing status code" style="shape=parallelogram;perimeter=parallelogramPerimeter;whiteSpace=wrap;html=1;fixedSize=1;fillColor=#1ba1e2;fontColor=#ffffff;strokeColor=#006EAF;" vertex="1" parent="YXR1pxdyc6zQwKIzhy1a-86">
          <mxGeometry x="500" y="370" width="160" height="60" as="geometry" />
        </mxCell>
        <mxCell id="YXR1pxdyc6zQwKIzhy1a-121" value="302 Stauts" style="shape=parallelogram;perimeter=parallelogramPerimeter;whiteSpace=wrap;html=1;fixedSize=1;fillColor=#1ba1e2;fontColor=#ffffff;strokeColor=#006EAF;" vertex="1" parent="YXR1pxdyc6zQwKIzhy1a-86">
          <mxGeometry x="290" y="370" width="120" height="60" as="geometry" />
        </mxCell>
        <mxCell id="YXR1pxdyc6zQwKIzhy1a-122" value="200 Stauts" style="shape=parallelogram;perimeter=parallelogramPerimeter;whiteSpace=wrap;html=1;fixedSize=1;fillColor=#1ba1e2;fontColor=#ffffff;strokeColor=#006EAF;" vertex="1" parent="YXR1pxdyc6zQwKIzhy1a-86">
          <mxGeometry x="50" y="370" width="120" height="60" as="geometry" />
        </mxCell>
        <mxCell id="YXR1pxdyc6zQwKIzhy1a-126" style="edgeStyle=none;curved=1;rounded=0;orthogonalLoop=1;jettySize=auto;html=1;entryX=0.603;entryY=0.046;entryDx=0;entryDy=0;entryPerimeter=0;fontSize=12;startSize=8;endSize=8;exitX=1;exitY=0.5;exitDx=0;exitDy=0;" edge="1" parent="YXR1pxdyc6zQwKIzhy1a-86" source="YXR1pxdyc6zQwKIzhy1a-116" target="YXR1pxdyc6zQwKIzhy1a-120">
          <mxGeometry relative="1" as="geometry" />
        </mxCell>
      </root>
    </mxGraphModel>
  </diagram>
</mxfile>
